<?xml version="1.0" encoding="utf-8"?>
<!-- Generator: Adobe Illustrator 25.0.0, SVG Export Plug-In . SVG Version: 6.00 Build 0)  -->
<svg version="1.1"
	 id="svg906" sodipodi:docname="Reddit_Lockup_OnWhite.svg" xmlns:inkscape="http://www.inkscape.org/namespaces/inkscape" xmlns:sodipodi="http://sodipodi.sourceforge.net/DTD/sodipodi-0.dtd" xmlns:svg="http://www.w3.org/2000/svg"
	 xmlns="http://www.w3.org/2000/svg" xmlns:xlink="http://www.w3.org/1999/xlink" x="0px" y="0px" viewBox="0 0 180 180"
	 style="enable-background:new 0 0 180 180;" xml:space="preserve">
<style type="text/css">
	.st0{display:none;}
	.st1{display:inline;fill:none;stroke:#D8D8D8;stroke-width:0.4925;stroke-miterlimit:10;}
	.st2{display:inline;fill:none;stroke:#D8D8D8;stroke-width:0.5589;stroke-miterlimit:10;}
	.st3{display:inline;}
</style>
<sodipodi:namedview  bordercolor="#666666" borderopacity="1.0" fit-margin-bottom="0" fit-margin-left="0" fit-margin-right="0" fit-margin-top="0" id="namedview908" inkscape:current-layer="svg906" inkscape:cx="243.26544" inkscape:cy="83.782448" inkscape:pagecheckerboard="0" inkscape:pageopacity="0.0" inkscape:pageshadow="2" inkscape:window-height="1001" inkscape:window-maximized="1" inkscape:window-width="1920" inkscape:window-x="-9" inkscape:window-y="-9" inkscape:zoom="1.8559973" pagecolor="#ffffff" showgrid="false">
	</sodipodi:namedview>
<g>
	<path d="M107.6,118.6c-3.7,3.8-11.8,5.1-17.5,5.1c-5.7,0-13.7-1.3-17.5-5.1c-0.9-0.9-2.3-0.9-3.2,0c-0.9,0.9-0.9,2.3,0,3.2
		c5.9,5.9,17.3,6.4,20.7,6.4c3.3,0,14.7-0.4,20.7-6.4c0.8-0.9,0.8-2.3,0-3.2C109.9,117.7,108.5,117.7,107.6,118.6z"/>
	<path d="M79.5,98.7c0-4.8-3.9-8.7-8.7-8.7c-4.8,0-8.7,3.9-8.7,8.7c0,4.8,3.9,8.8,8.7,8.7C75.6,107.4,79.5,103.5,79.5,98.7z"/>
	<path d="M90,6.2C43.7,6.2,6.2,43.7,6.2,90c0,46.3,37.5,83.8,83.8,83.8c46.3,0,83.8-37.5,83.8-83.8C173.8,43.7,136.3,6.2,90,6.2z
		 M138.7,101.2c0.2,1.2,0.3,2.5,0.3,3.7c0,18.9-21.9,34.1-48.9,34.1s-48.9-15.3-48.9-34.1c0-1.3,0.1-2.5,0.3-3.7
		c-4.2-1.9-7.2-6.1-7.2-11.1c0-6.7,5.4-12.2,12.2-12.2c3.3,0,6.3,1.3,8.5,3.4c8.5-6.1,20.2-10,33.2-10.4l6.2-29.2
		c0.1-0.6,0.4-1.1,0.9-1.4c0.4-0.3,1-0.4,1.6-0.3l20.3,4.3c1.4-2.9,4.4-4.9,7.8-4.9c4.8,0,8.7,3.9,8.7,8.7s-3.9,8.7-8.7,8.7
		c-4.7,0-8.5-3.7-8.7-8.3l-18.2-3.9l-5.6,26.2c12.8,0.5,24.3,4.4,32.7,10.4c2.2-2.1,5.2-3.4,8.5-3.4c6.7,0,12.2,5.4,12.2,12.2
		C145.9,95,142.9,99.3,138.7,101.2z"/>
	<circle cx="109.2" cy="98.8" r="8.7"/>
</g>
<g id="Spacing_Guides" transform="translate(-56,-56)" class="st0">
	<rect id="rect895" x="-153.3" y="6.2" class="st1" width="598.6" height="55.9"/>
	<rect id="rect897" x="-153.3" y="229.8" class="st1" width="598.6" height="55.9"/>
	<rect id="rect899" x="-153.3" y="6.2" class="st2" width="55.9" height="279.6"/>
	<rect id="rect901" x="389.4" y="6.2" class="st2" width="55.9" height="279.6"/>
	<g id="reddit_round" class="st3">
	</g>
	<g id="icon_2" class="st3">
	</g>
</g>
</svg>
